<!-- search.png -->
<svg viewBox="0 0 24 24" xmlns="http://www.w3.org/2000/svg">
  <path d="M15.5 14h-.79l-.28-.27a6.5 6.5 0 1 0-.7.7l.27.28v.79l5 4.99L20.49 19l-4.99-5zm-6 0a4.5 4.5 0 1 1 0-9 4.5 4.5 0 0 1 0 9z" fill="#666"/>
</svg>

<!-- product.png -->
<svg viewBox="0 0 24 24" xmlns="http://www.w3.org/2000/svg">
  <path d="M19 5H5c-1.1 0-2 .9-2 2v10c0 1.1.9 2 2 2h14c1.1 0 2-.9 2-2V7c0-1.1-.9-2-2-2zm0 12H5V7h14v10z" fill="#666"/>
  <path d="M12 8l-4 4h8l-4-4z" fill="#666"/>
</svg>

<!-- exhibition.png -->
<svg viewBox="0 0 24 24" xmlns="http://www.w3.org/2000/svg">
  <path d="M4 10v7h3v-7H4zm6 0v7h3v-7h-3zM2 22h19v-3H2v3zm14-12v7h3v-7h-3zm-4.5-9L2 6v2h19V6l-9.5-5z" fill="#666"/>
</svg>

<!-- record.png -->
<svg viewBox="0 0 24 24" xmlns="http://www.w3.org/2000/svg">
  <path d="M19 3H5c-1.1 0-2 .9-2 2v14c0 1.1.9 2 2 2h14c1.1 0 2-.9 2-2V5c0-1.1-.9-2-2-2zm0 16H5V5h14v14z" fill="#666"/>
  <path d="M7 7h10v2H7zm0 4h10v2H7zm0 4h7v2H7z" fill="#666"/>
</svg>

<!-- visualization.png -->
<svg viewBox="0 0 24 24" xmlns="http://www.w3.org/2000/svg">
  <path d="M3 13h2v-2H3v2zm0 4h2v-2H3v2zm0-8h2V7H3v2zm4 4h14v-2H7v2zm0 4h14v-2H7v2zM7 7v2h14V7H7z" fill="#666"/>
</svg>

<!-- reset.png -->
<svg viewBox="0 0 24 24" xmlns="http://www.w3.org/2000/svg">
  <path d="M17.65 6.35C16.2 4.9 14.21 4 12 4c-4.42 0-7.99 3.58-7.99 8s3.57 8 7.99 8c3.73 0 6.84-2.55 7.73-6h-2.08c-.82 2.33-3.04 4-5.65 4-3.31 0-6-2.69-6-6s2.69-6 6-6c1.66 0 3.14.69 4.22 1.78L13 11h7V4l-2.35 2.35z" fill="#666"/>
</svg>